PathFileType	4	(X/Y/Z)	C:\Documents and Settings\rtobon\Desktop\NewMocap\New\NoT\ActorI_Run.trc
DataRate	CameraRate	NumFrames	NumMarkers	Units	OrigDataRate	OrigDataStartFrame	OrigNumFrames
120.00	120.00	       4	49	mm	120.00	40	       105
Frame#	Time	Root			LtFtHip			LtBkHip			RtFtHip			RtBkHip			Spine1			Spine2			Spine3			SpineOffsetLow			SpineOffsetHigh			LtCtChest			RtCtChest			LtChest			RtChest			LtShoulder			LtBicep			LtElbow			LtForeArm			LtWrist			LtPinky			LtThumb			LtMiddFing			RtShoulder			RtBicep			RtElbow			RtForeArm			RtWrist			RtPinky			RtThumb			RtMiddFing			LtThigh			LtKnee			LtCalf			LtAnkle			LtHeel			LtBall			LtToe			RtThigh			RtKnee			RtCalf			RtAnkle			RtHeel			RtBall			RtToe			TopHead			LfFtHead			LtBkHead			RtFtHead			RtBkHead			
		X1	Y1	Z1	X2	Y2	Z2	X3	Y3	Z3	X4	Y4	Z4	X5	Y5	Z5	X6	Y6	Z6	X7	Y7	Z7	X8	Y8	Z8	X9	Y9	Z9	X10	Y10	Z10	X11	Y11	Z11	X12	Y12	Z12	X13	Y13	Z13	X14	Y14	Z14	X15	Y15	Z15	X16	Y16	Z16	X17	Y17	Z17	X18	Y18	Z18	X19	Y19	Z19	X20	Y20	Z20	X21	Y21	Z21	X22	Y22	Z22	X23	Y23	Z23	X24	Y24	Z24	X25	Y25	Z25	X26	Y26	Z26	X27	Y27	Z27	X28	Y28	Z28	X29	Y29	Z29	X30	Y30	Z30	X31	Y31	Z31	X32	Y32	Z32	X33	Y33	Z33	X34	Y34	Z34	X35	Y35	Z35	X36	Y36	Z36	X37	Y37	Z37	X38	Y38	Z38	X39	Y39	Z39	X40	Y40	Z40	X41	Y41	Z41	X42	Y42	Z42	X43	Y43	Z43	X44	Y44	Z44	X45	Y45	Z45	X46	Y46	Z46	X47	Y47	Z47	X48	Y48	Z48	X49	Y49	Z49	
40	0.325	-409.38235	904.69550	24.41953	-209.65532	862.53558	-123.06130	-395.76355	903.30231	-97.22977	-172.20894	864.21674	125.42043	-369.50775	885.76910	153.84074	-471.41827	1007.83020	0.05496	-530.79938	1126.85339	-15.39794	-555.76483	1226.78882	-13.08752	-426.69370	958.18524	93.80125	-525.65814	1174.70850	-114.43584	-254.76071	1178.68250	5.46234	-305.26498	1223.99585	58.09101	-323.90002	1255.97742	-62.74720	-358.14520	1239.26367	135.05132	-426.31302	1280.51514	-173.39697	-257.19864	1164.38525	-208.01083	-218.05339	1031.22595	-284.61026	-178.30342	1151.96948	-163.81683	-95.93357	1187.87000	-133.70567	-34.38089	1202.04968	-81.37313	-148.49777	1230.41333	-91.91000	-80.73076	1249.73315	-106.25771	-493.56244	1237.26379	208.67065	-463.02682	1061.00354	260.91016	-569.63568	953.36206	297.07739	-426.24112	942.54004	254.41885	-345.54822	859.33917	267.06140	-293.82510	790.77942	238.05641	-322.99728	912.11029	221.10960	-278.95840	856.77167	263.30869	-242.69519	595.14801	-154.94057	-332.60898	399.51587	-146.06963	-504.65576	333.38007	-126.38024	-598.58234	159.58040	-76.13274	-720.88452	126.98292	7.32878	-564.57312	69.35320	-73.61322	-477.25046	57.49116	-20.68227	-40.33512	720.15479	117.86921	79.17714	574.56897	190.47200	-87.73548	493.12390	212.50175	-250.32390	348.67841	151.99165	-329.87402	318.15573	60.73863	-220.84712	223.81685	193.97508	-144.99969	154.51645	168.72630	-656.00708	1491.70789	-4.51069	-509.39502	1503.17834	-53.43362	-585.18042	1386.47498	-85.33575	-517.65967	1518.15088	71.78507	-613.30054	1387.15393	91.10815	
41	0.333	-374.15021	906.05859	23.70257	-174.44963	865.47247	-123.62743	-360.54984	906.21436	-98.27907	-137.67805	866.91748	125.39585	-335.39160	887.76385	152.74881	-435.30106	1008.92047	-3.50537	-498.04242	1127.17065	-19.55069	-523.70825	1226.84998	-16.68710	-393.64410	959.43958	92.38577	-490.99640	1175.33252	-119.06302	-222.91605	1180.90869	7.27776	-274.88657	1224.72412	59.86689	-291.81082	1258.35767	-60.63273	-329.67410	1240.02454	135.58650	-392.54538	1284.23169	-172.57005	-217.89378	1177.11292	-199.79387	-167.43404	1044.76782	-272.23880	-144.58281	1173.88000	-157.49629	-67.56724	1220.05713	-126.52164	-9.90961	1242.97009	-72.83658	-125.60436	1258.50037	-88.89851	-60.50577	1284.54822	-102.28118	-466.77261	1239.89270	204.92072	-447.01270	1064.91589	261.91397	-561.70563	966.27551	297.98923	-419.45087	940.47559	256.73135	-347.34329	850.01514	270.95026	-301.13089	777.06744	243.21979	-320.35483	900.50049	225.59375	-283.11951	841.92175	269.86877	-218.94701	596.95367	-154.74039	-319.91699	406.64185	-141.34131	-493.72522	343.43152	-124.50713	-590.05310	169.25113	-78.41031	-711.60974	140.50304	4.06141	-560.05554	69.90995	-75.68181	-477.25812	58.02361	-20.85474	-4.22033	728.24426	112.48943	120.13128	586.65985	186.09048	-40.87408	494.79276	210.17937	-194.92987	339.17844	152.89243	-274.93155	302.80121	63.09332	-154.03799	216.00241	191.76189	-73.94711	153.73386	163.60951	-625.59814	1490.44983	-6.80655	-479.82773	1502.73657	-55.24285	-554.60150	1385.82422	-87.22149	-488.21487	1517.83826	70.11671	-583.62378	1386.12805	89.24477	
42	0.342	-339.04626	908.25598	22.34355	-139.21927	868.73914	-125.05533	-325.20117	909.12164	-99.55638	-101.60196	870.33905	123.57569	-300.92490	890.25079	152.09978	-402.04575	1011.92889	-6.85945	-465.47821	1127.76782	-23.80768	-492.19620	1226.97986	-20.28055	-360.67456	961.17786	89.55012	-456.59189	1176.20801	-123.09721	-190.96402	1183.32019	9.52033	-244.61766	1225.84033	61.99398	-260.02872	1261.59949	-58.41399	-301.27127	1240.20996	136.01810	-358.54092	1288.24146	-171.14665	-179.88850	1191.13428	-190.95122	-117.72485	1060.08337	-259.92068	-112.33828	1195.64221	-151.44637	-41.59756	1250.64551	-120.58819	10.84869	1281.81433	-66.88173	-104.61050	1284.88770	-87.18482	-41.44771	1316.22229	-98.96139	-440.46637	1242.82104	201.67833	-429.63425	1070.70911	263.99133	-551.43219	979.40717	299.46027	-411.19003	941.05682	259.39499	-348.14966	843.62854	274.55496	-307.22180	768.22986	247.93866	-316.04956	892.54553	230.78575	-285.43637	831.75983	277.26108	-192.70715	599.51190	-154.09804	-302.75323	414.80801	-137.58676	-478.93097	354.70731	-123.25183	-577.40637	179.91864	-80.08627	-699.06012	156.67393	0.56685	-554.22504	70.55343	-77.19276	-477.23392	58.26759	-20.55116	32.37074	734.60925	108.95443	159.83150	596.05994	182.38663	3.31278	494.62781	207.59758	-140.97121	328.57666	153.07780	-220.45178	286.62372	65.44002	-88.74568	207.39249	188.84373	-4.69646	153.12067	156.97792	-596.27728	1489.18445	-8.67399	-449.90546	1502.57910	-56.43961	-523.84131	1384.71838	-88.44352	-458.85083	1517.20142	68.51610	-553.40295	1385.54126	87.72791	
43	0.350	-303.48795	911.33374	21.37104	-104.25729	872.77533	-126.10009	-289.08884	912.97107	-100.53896	-65.75710	874.27612	122.75647	-264.57248	890.60193	150.59392	-366.32550	1014.04272	-9.55767	-432.19482	1128.87183	-27.29005	-459.88641	1227.34656	-23.66094	-327.02203	963.28418	87.02026	-421.13782	1177.88794	-126.39301	-158.79134	1186.15759	12.35920	-214.07617	1227.34045	64.72865	-227.80522	1264.88525	-55.09114	-272.72711	1241.38086	137.20059	-324.59506	1292.98230	-169.28052	-141.49083	1204.74402	-182.81818	-70.06348	1077.20215	-248.28580	-81.17442	1216.19226	-145.97812	-17.68579	1279.44641	-116.50566	30.23802	1318.89209	-62.95956	-84.73198	1309.39270	-87.03815	-25.20179	1345.76025	-98.14107	-413.41403	1245.93884	198.26709	-411.03076	1077.31348	265.30942	-538.15692	992.71417	301.50876	-400.13312	942.79749	263.32520	-346.16165	840.66699	278.54373	-311.13736	761.86737	251.83095	-309.38483	887.01263	236.22917	-285.45688	823.75842	282.44562	-164.57109	602.80054	-152.62735	-281.55875	422.20355	-134.13127	-459.55414	366.87216	-122.94727	-560.56964	191.43726	-82.19800	-681.84717	174.36371	-1.97888	-547.70087	71.23412	-79.10889	-476.55063	58.62530	-20.62543	69.05032	739.62256	105.78557	196.88220	602.55627	179.77655	45.92813	492.43570	205.99748	-86.90334	317.12735	153.57501	-165.80301	270.63187	67.86532	-24.86578	198.66570	185.52669	62.87939	152.23366	148.64665	-566.10199	1488.35498	-10.14231	-419.44885	1502.04199	-57.28822	-493.14236	1384.00134	-89.27588	-429.29330	1517.12671	67.55505	-523.20764	1384.99817	86.85104	
